<svg width="120" height="32" viewBox="0 0 120 32" fill="none" xmlns="http://www.w3.org/2000/svg">
  <rect width="32" height="32" rx="6" fill="#30af9f"/>
  <path d="M8 12C8 10.3431 9.34315 9 11 9H13C14.6569 9 16 10.3431 16 12V14C16 15.6569 14.6569 17 13 17H11C9.34315 17 8 15.6569 8 14V12Z" fill="white"/>
  <path d="M16 18C16 16.3431 17.3431 15 19 15H21C22.6569 15 24 16.3431 24 18V20C24 21.6569 22.6569 23 21 23H19C17.3431 23 16 21.6569 16 20V18Z" fill="white"/>
  <path d="M8 20C8 18.8954 8.89543 18 10 18H12C13.1046 18 14 18.8954 14 20V22C14 23.1046 13.1046 24 12 24H10C8.89543 24 8 23.1046 8 22V20Z" fill="white" opacity="0.7"/>
  <path d="M18 9C18 7.89543 18.8954 7 20 7H22C23.1046 7 24 7.89543 24 9V11C24 12.1046 23.1046 13 22 13H20C18.8954 13 18 12.1046 18 11V9Z" fill="white" opacity="0.7"/>
  <text x="40" y="22" font-family="Inter, sans-serif" font-size="18" font-weight="700" fill="#1A202C">SkillRise</text>
</svg>
